<?xml version="1.0" encoding="UTF-8"?>
<svg width="18px" height="18px" viewBox="0 0 18 18" version="1.1" xmlns="http://www.w3.org/2000/svg" xmlns:xlink="http://www.w3.org/1999/xlink">
    <title>icon_37</title>
    <g id="icon_37" stroke="none" stroke-width="1" fill="none" fill-rule="evenodd">
        <g id="编组-24" transform="translate(1.000000, 1.000000)">
            <path d="M8,16 C10.20912,16 12.20912,15.10456 13.65684,13.65684 C15.10456,12.20912 16,10.20912 16,8 C16,5.79088 15.10456,3.79088 13.65684,2.343144 C12.20912,0.895432 10.20912,0 8,0 C5.79088,0 3.79088,0.895432 2.343144,2.343144 C0.895432,3.79088 0,5.79088 0,8 C0,10.20912 0.895432,12.20912 2.343144,13.65684 C3.79088,15.10456 5.79088,16 8,16 Z" id="路径" stroke="#818588" stroke-width="1.4" stroke-linecap="round" stroke-linejoin="round" transform="translate(8.000000, 8.000000) rotate(-180.000000) translate(-8.000000, -8.000000) "></path>
            <line x1="8" y1="12.3215086" x2="8" y2="6.15008" id="路径" stroke="#818588" stroke-width="1.4" stroke-linejoin="round" transform="translate(8.000000, 9.235794) rotate(-180.000000) translate(-8.000000, -9.235794) "></line>
            <path d="M8,5.55008 C8.55228,5.55008 9,5.10236 9,4.55008 C9,3.9978 8.55228,3.55008 8,3.55008 C7.44772,3.55008 7,3.9978 7,4.55008 C7,5.10236 7.44772,5.55008 8,5.55008 Z" id="路径" fill="#818588" transform="translate(8.000000, 4.550080) rotate(-180.000000) translate(-8.000000, -4.550080) "></path>
        </g>
    </g>
</svg>