<?xml version="1.0" encoding="UTF-8"?>
<svg width="18px" height="18px" viewBox="0 0 18 18" version="1.1" xmlns="http://www.w3.org/2000/svg" xmlns:xlink="http://www.w3.org/1999/xlink">
    <title>icon_33</title>
    <g id="icon_33" stroke="none" stroke-width="1" fill="none" fill-rule="evenodd">
        <g id="编组" fill="#818588" fill-rule="nonzero">
            <g id="01-图标/浅色版/基础样式#通用/布局">
                <path d="M9,1 C13.418278,1 17,4.581722 17,9 C17,13.418278 13.418278,17 9,17 C4.581722,17 1,13.418278 1,9 C1,4.581722 4.581722,1 9,1 Z M3.52229885,7.52689655 C3.45425287,7.59494253 3.45425287,7.59494253 3.52229885,7.66114943 C3.34114943,7.95448276 2.95218391,7.99034483 2.67356322,7.8137931 C2.35263958,9.52732041 2.74027302,11.2977449 3.747861,12.7203954 C4.75544897,14.1430458 6.29686036,15.0963105 8.01425287,15.3577011 L8.01425287,15.3577011 L7.90390805,15.3025287 L8.06952586,15.2642529 C8.24344828,15.2363218 8.43586207,15.2363218 8.58896552,15.2363218 C8.52091954,14.8335632 8.52091954,14.4997701 8.52091954,14.096092 L8.52091954,14.096092 L8.50829614,14.0868657 L8.41557152,14.0172692 C8.06303436,13.7482459 6.94666667,12.851712 6.94666667,12.2864368 C6.94666667,11.6151724 7.15172414,11.2813793 6.94666667,11.2813793 C6.83233716,11.2813793 6.710447,11.3112133 6.59621967,11.3410473 L6.43252874,11.382069 C6.2783908,11.4156322 6.15862069,11.4156322 6.1245977,11.2813793 C5.98758621,10.8786207 5.71356322,10.543908 5.30252874,10.4105747 C4.36,10.4105747 4.22482759,9.3954023 4.20827586,8.34896552 L4.20827586,8.34896552 L4.20735632,8.06390805 L4.19557333,7.97250207 C4.12651954,7.72535172 3.76891954,7.70731034 3.52229885,7.52689655 Z M9.38988506,2.57425287 L9.38896552,2.57517241 L9.46804598,2.59632184 L9.59312693,2.6397753 C10.5117944,3.00009579 10.5054789,3.9610728 9.68505747,3.83770115 C9.68505747,4.17149425 9.68505747,4.57333333 9.61701149,4.97609195 C9.54804598,5.64735632 8.72597701,5.44689655 8.52091954,5.7816092 C8.31678161,6.11724138 8.93195402,6.45195402 9.61701149,6.31770115 C9.82206897,6.31770115 9.61701149,6.1154023 9.75494253,6.0491954 C10.028046,5.98298851 10.3701149,5.98298851 10.6441379,6.0491954 C10.3651626,6.65212792 10.0447,7.23498276 9.68505747,7.79356322 C9.54712644,7.99402299 9.68505747,8.39678161 9.68505747,8.66436782 C9.68505747,10.6772414 8.72597701,8.1954023 8.58896552,8.26252874 C8.45195402,8.39678161 7.83678161,8.12827586 7.56275862,8.12827586 C7.28873563,8.12827586 7.42482759,8.66436782 7.15172414,8.66436782 C6.60367816,8.66436782 6.74068966,8.53011494 6.74068966,8.73057471 C6.74068966,8.99908046 6.80781609,9.53609195 6.80781609,10.3406897 C6.80781609,10.6091954 7.35586207,10.2744828 7.69793103,10.2744828 C8.10896552,10.2744828 8.38298851,10.6091954 8.65701149,10.7434483 C9.13517241,10.9457471 9.61517241,11.616092 9.95724138,11.6813793 C10.2993103,11.7503448 10.0252874,12.2855172 10.4354023,12.2183908 C10.6404598,12.1521839 10.9144828,12.2864368 11.0514943,12.4868966 C11.2574713,12.7554023 11.1204598,13.091954 10.8464368,13.2924138 C10.4363218,13.6942529 10.2993103,14.1632184 10.0942529,15.102069 C10.2064368,15.0652874 10.3388506,15.1590805 10.4482759,15.2721839 C12.541139,14.7878381 14.2551916,13.2927401 15.0193103,11.2850575 C14.4988506,11.8377011 13.8974713,11.88 14.0758621,11.411954 C13.8698851,11.0101149 13.5958621,10.6735632 13.2537931,10.3388506 C12.6367816,9.80275862 12.0887356,8.79586207 14.0068966,7.38712644 C13.7098851,6.63126437 14.4455172,5.92505747 14.9126437,6.45471264 C13.9519156,4.22233898 11.8157533,2.72140575 9.38988506,2.57425287 L9.38988506,2.57425287 Z" id="形状结合"></path>
            </g>
        </g>
    </g>
</svg>