<?xml version="1.0" encoding="UTF-8"?>
<svg width="11px" height="24px" viewBox="0 0 11 24" version="1.1" xmlns="http://www.w3.org/2000/svg" xmlns:xlink="http://www.w3.org/1999/xlink">
    <title>icon_drag1</title>
    <g id="icon_drag1" stroke="none" stroke-width="1" fill="none" fill-rule="evenodd">
        <g id="01-图标/浅色版/基础样式#通用/拖拽" fill="#94959B">
            <path d="M3.85,3.46666667 C4.45751322,3.46666667 4.95,2.98910373 4.95,2.4 C4.95,1.81089627 4.45751322,1.33333333 3.85,1.33333333 C3.24248678,1.33333333 2.75,1.81089627 2.75,2.4 C2.75,2.98910373 3.24248678,3.46666667 3.85,3.46666667 Z M3.85,6.66666667 C4.45751322,6.66666667 4.95,6.18910373 4.95,5.6 C4.95,5.01089627 4.45751322,4.53333333 3.85,4.53333333 C3.24248678,4.53333333 2.75,5.01089627 2.75,5.6 C2.75,6.18910373 3.24248678,6.66666667 3.85,6.66666667 Z M3.85,9.86666667 C4.45751322,9.86666667 4.95,9.38910373 4.95,8.8 C4.95,8.21089627 4.45751322,7.73333333 3.85,7.73333333 C3.24248678,7.73333333 2.75,8.21089627 2.75,8.8 C2.75,9.38910373 3.24248678,9.86666667 3.85,9.86666667 Z M3.85,13.0666667 C4.45751322,13.0666667 4.95,12.5891037 4.95,12 C4.95,11.4108963 4.45751322,10.9333333 3.85,10.9333333 C3.24248678,10.9333333 2.75,11.4108963 2.75,12 C2.75,12.5891037 3.24248678,13.0666667 3.85,13.0666667 Z M3.85,16.2666667 C4.45751322,16.2666667 4.95,15.7891037 4.95,15.2 C4.95,14.6108963 4.45751322,14.1333333 3.85,14.1333333 C3.24248678,14.1333333 2.75,14.6108963 2.75,15.2 C2.75,15.7891037 3.24248678,16.2666667 3.85,16.2666667 Z M3.85,19.4666667 C4.45751322,19.4666667 4.95,18.9891037 4.95,18.4 C4.95,17.8108963 4.45751322,17.3333333 3.85,17.3333333 C3.24248678,17.3333333 2.75,17.8108963 2.75,18.4 C2.75,18.9891037 3.24248678,19.4666667 3.85,19.4666667 Z M3.85,22.6666667 C4.45751322,22.6666667 4.95,22.1891037 4.95,21.6 C4.95,21.0108963 4.45751322,20.5333333 3.85,20.5333333 C3.24248678,20.5333333 2.75,21.0108963 2.75,21.6 C2.75,22.1891037 3.24248678,22.6666667 3.85,22.6666667 Z M7.15,3.46666667 C7.75751322,3.46666667 8.25,2.98910373 8.25,2.4 C8.25,1.81089627 7.75751322,1.33333333 7.15,1.33333333 C6.54248678,1.33333333 6.05,1.81089627 6.05,2.4 C6.05,2.98910373 6.54248678,3.46666667 7.15,3.46666667 Z M7.15,6.66666667 C7.75751322,6.66666667 8.25,6.18910373 8.25,5.6 C8.25,5.01089627 7.75751322,4.53333333 7.15,4.53333333 C6.54248678,4.53333333 6.05,5.01089627 6.05,5.6 C6.05,6.18910373 6.54248678,6.66666667 7.15,6.66666667 Z M7.15,9.86666667 C7.75751322,9.86666667 8.25,9.38910373 8.25,8.8 C8.25,8.21089627 7.75751322,7.73333333 7.15,7.73333333 C6.54248678,7.73333333 6.05,8.21089627 6.05,8.8 C6.05,9.38910373 6.54248678,9.86666667 7.15,9.86666667 Z M7.15,13.0666667 C7.75751322,13.0666667 8.25,12.5891037 8.25,12 C8.25,11.4108963 7.75751322,10.9333333 7.15,10.9333333 C6.54248678,10.9333333 6.05,11.4108963 6.05,12 C6.05,12.5891037 6.54248678,13.0666667 7.15,13.0666667 Z M7.15,16.2666667 C7.75751322,16.2666667 8.25,15.7891037 8.25,15.2 C8.25,14.6108963 7.75751322,14.1333333 7.15,14.1333333 C6.54248678,14.1333333 6.05,14.6108963 6.05,15.2 C6.05,15.7891037 6.54248678,16.2666667 7.15,16.2666667 Z M7.15,19.4666667 C7.75751322,19.4666667 8.25,18.9891037 8.25,18.4 C8.25,17.8108963 7.75751322,17.3333333 7.15,17.3333333 C6.54248678,17.3333333 6.05,17.8108963 6.05,18.4 C6.05,18.9891037 6.54248678,19.4666667 7.15,19.4666667 Z M7.15,22.6666667 C7.75751322,22.6666667 8.25,22.1891037 8.25,21.6 C8.25,21.0108963 7.75751322,20.5333333 7.15,20.5333333 C6.54248678,20.5333333 6.05,21.0108963 6.05,21.6 C6.05,22.1891037 6.54248678,22.6666667 7.15,22.6666667 Z" id="形状"></path>
        </g>
    </g>
</svg>