<?xml version="1.0" encoding="UTF-8"?>
<svg width="20px" height="20px" viewBox="0 0 20 20" version="1.1" xmlns="http://www.w3.org/2000/svg" xmlns:xlink="http://www.w3.org/1999/xlink">
    <title>icon_andrord</title>
    <g id="icon_andrord" stroke="none" stroke-width="1" fill="none" fill-rule="evenodd">
        <g id="安卓android">
            <rect id="矩形" x="0" y="0" width="20" height="20"></rect>
            <path d="M3.23920456,6.44436251 C2.9141008,6.4408085 2.60089272,6.56830312 2.36849251,6.79887034 C2.13609231,7.02943756 2.00354007,7.34418748 2,7.67386866 L2,12.8365931 C2,13.5306221 2.55481078,14.0932438 3.23920456,14.0932438 C3.92359833,14.0932438 4.47840911,13.5306221 4.47840911,12.8365931 L4.47840911,7.67386866 C4.47486904,7.34418748 4.3423168,7.02943756 4.1099166,6.79887034 C3.87751639,6.56830312 3.56430831,6.4408085 3.23920456,6.44436251 Z M4.9571007,14.7057157 C4.96059779,15.0614557 5.10456908,15.4009286 5.35680494,15.6481867 C5.6090408,15.8954448 5.9484889,16.0298511 6.29920707,16.0213361 L7.19395164,16.0213361 L7.19395164,18.7433386 C7.19395164,19.4373677 7.74876242,20 8.4331562,20 C9.11754997,20 9.67236075,19.4373677 9.67236075,18.7433386 L9.67236075,16.0213361 L11.345527,16.0213361 L11.345527,18.7433386 C11.345527,19.4373735 11.9003425,20 12.5847421,20 C13.2691416,20 13.8239571,19.4373735 13.8239571,18.7433386 L13.8239571,16.0213361 L14.7186807,16.0213361 C15.0693989,16.0298511 15.408847,15.8954448 15.6610828,15.6481867 C15.9133187,15.4009286 16.05729,15.0614557 16.0607871,14.7057157 L16.0607871,6.70755776 L4.9571007,6.70755776 L4.9571007,14.7057157 Z M13.237897,1.83517319 L14.1013118,0.270021723 C14.1296955,0.22911939 14.1386135,0.177511888 14.1256361,0.129259512 C14.1126587,0.0810071361 14.0791379,0.0411371175 14.0342064,0.0205119112 C13.9512357,-0.0239297894 13.8484626,0.00613458419 13.8015817,0.088561975 L12.9068371,1.67185304 C11.3581195,1.000555 9.60608399,1.000555 8.05736641,1.67185304 L7.16262184,0.0930915574 C7.12021973,0.0272151068 7.04001848,-0.00235878253 6.96579356,0.0205119112 C6.9261023,0.0416320572 6.8965549,0.0781734413 6.88390718,0.121781083 C6.87125947,0.165388724 6.87659298,0.212333635 6.89868824,0.251882128 L7.76210301,1.83517319 C6.06021475,2.64745192 4.95697682,4.36512801 4.91237082,6.27203735 L16.0965835,6.27203735 C16.0524074,4.3624073 14.9447078,2.64318677 13.237897,1.83517319 Z M7.95895227,4.26228504 C7.71188117,4.26228504 7.51159047,4.05917454 7.51159047,3.80862504 C7.51159047,3.55807554 7.71188117,3.35496504 7.95895227,3.35496504 C8.20602337,3.35496504 8.40631407,3.55807554 8.40631407,3.80862504 C8.4087203,3.93050867 8.36265208,4.04824545 8.27849325,4.13529735 C8.19433442,4.22234924 8.07916786,4.2713899 7.95895227,4.27136548 L7.95895227,4.26228504 Z M13.0410477,4.26228504 C12.7939794,4.2622733 12.5937069,4.0591576 12.5937069,3.80861086 C12.5937069,3.55806413 12.7940073,3.35496504 13.0410757,3.35496504 C13.2881441,3.35496504 13.4884305,3.55807831 13.4884305,3.80862504 C13.4908368,3.93051236 13.4447657,4.04825241 13.3606023,4.13530494 C13.276439,4.22235747 13.161267,4.27139561 13.0410477,4.27136549 L13.0410477,4.26228504 Z M17.7607954,6.45342213 C17.4349211,6.44987003 17.1210368,6.57798747 16.8885072,6.80953705 C16.6559775,7.04108663 16.5239463,7.35700521 16.5215909,7.68747867 L16.5215909,12.8502031 C16.5215909,13.5442321 17.0764017,14.1068538 17.7607954,14.1068538 C18.4451892,14.1068538 19,13.5442321 19,12.8502031 L19,7.69200826 C18.997639,7.36153849 18.8656054,7.04562538 18.6330763,6.81408039 C18.4005473,6.58253541 18.0866662,6.45442087 17.7607954,6.45804794 L17.7607954,6.45342213 Z" id="形状" fill="#000000" fill-rule="nonzero"></path>
        </g>
    </g>
</svg>