<?xml version="1.0" encoding="UTF-8"?>
<svg width="18px" height="18px" viewBox="0 0 18 18" version="1.1" xmlns="http://www.w3.org/2000/svg" xmlns:xlink="http://www.w3.org/1999/xlink">
    <title>icon_33</title>
    <g id="icon_33" stroke="none" stroke-width="1" fill="none" fill-rule="evenodd" stroke-linecap="round" stroke-linejoin="round">
        <g id="编组" stroke="#94959B" stroke-width="1.4">
            <g id="编组-23" transform="translate(1.000000, 1.000000)">
                <circle id="椭圆形" cx="8" cy="8" r="8"></circle>
                <path d="M3.13936955,1.98822086 C6.07078584,2.05815695 7.53649399,2.54901865 7.53649399,3.46080594 C7.53649399,4.82848688 5.61086368,3.88782856 4.99228516,5.63972915 C4.37370663,7.39162973 6.51929388,8.3044913 5.44650026,9.20567017 C4.37370663,10.106849 3.49045466,9.25625624 3.13936955,8 C2.78828444,6.74374376 2.40899973,6.51230556 0.484477263,7.35960304" id="路径-5"></path>
                <path d="M12.6732538,2.1173719 C10.2676931,4.0247104 9.22625472,5.25419332 9.5489388,5.80582069 C10.0329649,6.63326173 12.396092,5.12297135 12.6732538,6.36214265 C12.9504157,7.60131395 9.00367925,7.495364 8.77647099,9.37436424 C8.54926273,11.2533645 10.9777525,10.9662321 11.2019393,12.2656297 C11.3513973,13.1318947 10.8003971,14.2786223 9.5489388,15.7058123" id="路径-6"></path>
                <path d="M1.07616545,11.7232908 C2.23993637,10.7522843 3.3070565,10.5095327 4.27752583,10.9950359 C5.24799516,11.4805392 5.73900404,12.1037841 5.75055245,12.8647706 C7.12071764,13.4772392 7.40439226,14.3070798 6.6015763,15.3542923" id="路径-7"></path>
            </g>
        </g>
    </g>
</svg>