<?xml version="1.0" encoding="UTF-8"?>
<svg width="20px" height="20px" viewBox="0 0 20 20" version="1.1" xmlns="http://www.w3.org/2000/svg" xmlns:xlink="http://www.w3.org/1999/xlink">
    <title>icon_ios</title>
    <g id="icon_ios" stroke="none" stroke-width="1" fill="none" fill-rule="evenodd">
        <g id="编组备份">
            <rect id="矩形" x="0" y="0" width="20" height="20"></rect>
            <path d="M10.0431574,4.59838203 C10.0831224,3.49615809 10.3887087,2.52799655 10.9526542,1.71867294 C11.5194753,0.905249707 12.4565091,0.327421077 13.7391429,0 C13.747672,0.0400280651 13.7565423,0.0800808267 13.7657537,0.11998047 L13.7657537,0.329406674 C13.7657537,0.804290471 13.6520971,1.34882824 13.4277568,1.94779212 C13.1926455,2.52773477 12.8252109,3.0735617 12.3371989,3.56617757 C11.880769,4.00023313 11.4585043,4.28760145 11.0853186,4.41750497 C10.9621094,4.45479666 10.793184,4.49149564 10.5891674,4.52453954 C10.4077164,4.55318746 10.2256806,4.57783456 10.0431574,4.59838203 Z M10.2571652,6.23398093 C8.80833539,6.23398093 7.80243506,4.93539029 6.37329532,4.93539029 C4.94420431,4.93539029 2,6.26662969 2,10.862547 C2,15.4584643 4.61449281,18.4196718 4.90691986,18.7654226 C5.19929818,19.1112228 5.87558447,20 6.92330187,20 C7.971068,20 9.11811311,19.1557753 10.2571652,19.1557753 C11.3961686,19.1557753 12.829841,20 13.7658025,20 C14.701764,20 15.0867442,19.6133024 15.7237478,18.9463491 C16.3607027,18.2793958 17.5756883,16.2440596 18,15.0224726 C17.3010993,14.6008542 15.4486714,13.4562708 15.4486714,10.862547 C15.4486714,9.13344722 16.0721747,7.69695139 17.3192298,6.55315832 C16.5011164,5.47466276 15.5522881,4.93539029 14.4726961,4.93539029 C12.8532839,4.93539029 11.7059951,6.23398093 10.2571652,6.23398093 Z" id="形状结合" fill="#000000" fill-rule="nonzero"></path>
        </g>
    </g>
</svg>