<?xml version="1.0" encoding="UTF-8"?>
<svg width="18px" height="18px" viewBox="0 0 18 18" version="1.1" xmlns="http://www.w3.org/2000/svg" xmlns:xlink="http://www.w3.org/1999/xlink">
    <title>icon_32</title>
    <g id="icon_32" stroke="none" stroke-width="1" fill="none" fill-rule="evenodd">
        <g id="编组" transform="translate(1.412468, 1.990492)">
            <path d="M5.356425,14 C4.0997625,13.6367108 2.981175,12.962239 2.09545125,12.068563 C2.425875,11.6883055 2.625,11.1969894 2.625,10.6605216 C2.625,9.45391509 1.61764125,8.47576165 0.375,8.47576165 C0.29983125,8.47576165 0.22552125,8.4793665 0.15224625,8.48635773 C0.05242125,8.01244689 0,7.52182263 0,7.01925502 C0,6.25801183 0.12028875,5.52404172 0.34342125,4.83427659 C0.35392875,4.83442225 0.364455,4.83449507 0.375,4.83449507 C1.61764125,4.83449507 2.625,3.85634163 2.625,2.64973512 C2.625,2.30334143 2.541975,1.97580951 2.394225,1.68480312 C3.2615625,0.90170869 4.3201875,0.315654117 5.4945375,0 C5.86665,0.708244556 6.6250125,1.19323942 7.5,1.19323942 C8.3749875,1.19323942 9.13335,0.708244556 9.5054625,0 C10.6798125,0.315654117 11.7384375,0.90170869 12.605775,1.68480312 C12.458025,1.97580951 12.375,2.30334143 12.375,2.64973512 C12.375,3.85634163 13.3823625,4.83449507 14.625,4.83449507 C14.6355375,4.83449507 14.646075,4.83442225 14.656575,4.83427659 C14.8797,5.52404172 15,6.25801183 15,7.01925502 C15,7.52182263 14.947575,8.01244689 14.84775,8.48635773 C14.774475,8.4793665 14.7001875,8.47576165 14.625,8.47576165 C13.3823625,8.47576165 12.375,9.45391509 12.375,10.6605216 C12.375,11.1969894 12.574125,11.6883055 12.9045375,12.068563 C12.018825,12.962239 10.9002375,13.6367108 9.643575,14 C9.35355,13.1190684 8.5035,12.4811549 7.5,12.4811549 C6.4965,12.4811549 5.64645,13.1190684 5.356425,14 Z" id="路径" stroke="#94959B" stroke-width="1.50769231"></path>
            <path d="M7.5,9.56810521 C8.94975,9.56810521 10.125,8.42693226 10.125,7.0192186 C10.125,5.61150495 8.94975,4.470332 7.5,4.470332 C6.05025,4.470332 4.875,5.61150495 4.875,7.0192186 C4.875,8.42693226 6.05025,9.56810521 7.5,9.56810521 Z" id="路径" fill="#94959B"></path>
        </g>
    </g>
</svg>