<?xml version="1.0" encoding="UTF-8"?>
<svg width="33px" height="32px" viewBox="0 0 33 32" version="1.1" xmlns="http://www.w3.org/2000/svg" xmlns:xlink="http://www.w3.org/1999/xlink">
    <title>编组 3</title>
    <defs>
        <rect id="path-1" x="0" y="0" width="32" height="32" rx="7.375"></rect>
        <path d="M6.21766382,5.79373219 L6.21766382,6.78290598 C6.21766382,9.43639032 8.36873789,11.5874644 11.0222222,11.5874644 C13.6491717,11.5874644 15.7837089,9.47919669 15.826137,6.86235814 L15.8267806,6.78290598 L15.8267806,0 L22.0444444,0 L22.0444444,6.78290598 C22.0444444,12.8703112 17.1096275,17.8051282 11.0222222,17.8051282 C4.99569103,17.8051282 0.0988115984,12.9685141 0.00147666287,6.96517858 L0,6.78290598 L0,5.79373219 L6.21766382,5.79373219 Z" id="path-3"></path>
        <linearGradient x1="56.1512796%" y1="45.3394784%" x2="23.1810576%" y2="84.277195%" id="linearGradient-5">
            <stop stop-color="#F4B200" offset="0.0191215035%"></stop>
            <stop stop-color="#E28600" offset="100%"></stop>
        </linearGradient>
        <linearGradient x1="74.7710586%" y1="4.89852467%" x2="32.6292422%" y2="89.3232527%" id="linearGradient-6">
            <stop stop-color="#FED702" stop-opacity="0" offset="0%"></stop>
            <stop stop-color="#FFEE93" offset="100%"></stop>
        </linearGradient>
        <linearGradient x1="66.3074045%" y1="44.8587294%" x2="36.4642611%" y2="58.2377336%" id="linearGradient-7">
            <stop stop-color="#0D9CE7" offset="0%"></stop>
            <stop stop-color="#34B6FA" offset="100%"></stop>
        </linearGradient>
    </defs>
    <g id="V1.0.2浅色版" stroke="none" stroke-width="1" fill="none" fill-rule="evenodd">
        <g id="1-2-1非首次登录" transform="translate(-1139.000000, -474.000000)">
            <g id="登录卡片" transform="translate(966.000000, 216.000000)">
                <g id="左侧扫码登录" transform="translate(0.000000, 40.000000)">
                    <g id="编组-4" transform="translate(50.000000, 134.000000)">
                        <g id="编组-3" transform="translate(123.929412, 84.000000)">
                            <g id="logo-2备份-2">
                                <g id="背板备份-4">
                                    <mask id="mask-2" fill="white">
                                        <use xlink:href="#path-1"></use>
                                    </mask>
                                    <use id="蒙版" fill="#1C2026" xlink:href="#path-1"></use>
                                    <g id="编组-11备份" opacity="0.04" mask="url(#mask-2)" stroke="#FFFFFF" stroke-width="0.666666667">
                                        <g transform="translate(16.000000, 16.088889) rotate(-90.000000) translate(-16.000000, -16.088889) translate(-5.333333, -4.000000)">
                                            <path d="M42.6666667,8.08888889 L0,8.08888889 M0,0.0888888889 L42.6666667,0.0888888889" id="形状"></path>
                                            <path d="M42.6666667,24.0888889 L0,24.0888889 M0,16.0888889 L42.6666667,16.0888889" id="形状备份-18"></path>
                                            <path d="M42.6666667,40.0888889 L0,40.0888889 M0,32.0888889 L42.6666667,32.0888889" id="形状备份-19"></path>
                                        </g>
                                    </g>
                                    <g id="编组-11" opacity="0.04" mask="url(#mask-2)" stroke="#FFFFFF" stroke-width="0.666666667">
                                        <g transform="translate(-5.333333, -4.000000)">
                                            <path d="M42.6666667,8.08888889 L0,8.08888889 M0,0.0888888889 L42.6666667,0.0888888889" id="形状"></path>
                                            <path d="M42.6666667,24.0888889 L0,24.0888889 M0,16.0888889 L42.6666667,16.0888889" id="形状备份-18"></path>
                                            <path d="M42.6666667,40.0888889 L0,40.0888889 M0,32.0888889 L42.6666667,32.0888889" id="形状备份-19"></path>
                                        </g>
                                    </g>
                                </g>
                                <g id="编组-2备份-11" transform="translate(4.977778, 4.977778)">
                                    <g id="椭圆形备份-39" transform="translate(0.000000, 4.239316)">
                                        <mask id="mask-4" fill="white">
                                            <use xlink:href="#path-3"></use>
                                        </mask>
                                        <use id="蒙版" fill="#F4B200" xlink:href="#path-3"></use>
                                        <path d="M21.7111111,-3.62336182 L21.7111111,6.78290598 C21.7111111,8.87608092 20.8626843,10.7710952 19.4909638,12.1428157 C18.1192433,13.5145362 16.2242291,14.362963 14.1310541,14.362963 C12.0378792,14.362963 10.1428649,13.5145362 8.77114444,12.1428157 C7.39942393,10.7710952 6.55099715,8.87608092 6.55099715,6.78290598 C6.55099715,4.45155341 7.39846533,1.53753873 8.86277415,-0.624875046 C10.0367494,-2.35853956 11.6117947,-3.62336182 13.4901354,-3.62336182 L13.4901354,-3.62336182 L21.7111111,-3.62336182 Z" id="椭圆形" stroke="url(#linearGradient-6)" stroke-width="0.666666667" fill="url(#linearGradient-5)" mask="url(#mask-4)"></path>
                                        <path d="M21.4760776,-3.10883191 C21.7882522,-3.10883191 22.0413198,-2.85576437 22.0413198,-2.54358974 L22.0413198,2.99176642 C22.0413198,3.14785374 21.914786,3.27438751 21.7586987,3.27438751 C21.6837429,3.27438751 21.6118571,3.24461144 21.5588554,3.19160971 L20.177,1.81016809 L18.2333197,3.76822231 C18.0213128,3.98022925 17.7337697,4.09933351 17.4339466,4.09933351 L11.6845447,4.09933351 L11.686,4.09716809 L11.1612491,4.09776324 C10.8615326,4.09768757 10.5741127,3.97859514 10.362177,3.76666766 L9.359,2.76316809 L7.51687295,4.58419434 L6.29154001,5.79506 L0,5.79506 L1.39914298,4.41240188 L5.38953348,0.469026604 C5.60114233,0.259910953 5.88665324,0.142638349 6.18415561,0.142638349 L6.32088585,0.142183167 C6.31752935,0.142026305 6.31417083,0.141884342 6.31081036,0.141757314 L6.26806886,0.140949911 L12.4857327,0.140949911 C12.713277,0.140949911 12.9337484,0.209550696 13.1194961,0.335298981 L13.1583768,0.362885121 C13.2038024,0.396343541 13.2469248,0.433353507 13.2873068,0.473733965 L14.301,1.48716809 L17.08,-1.28683191 L15.7408782,-2.62636754 C15.6305078,-2.73673794 15.6305078,-2.91568371 15.7408782,-3.02605411 C15.7938799,-3.07905584 15.8657657,-3.10883191 15.9407214,-3.10883191 L21.4760776,-3.10883191 Z" id="形状结合" fill="#E89602" mask="url(#mask-4)"></path>
                                    </g>
                                    <path d="M21.1314442,0.994254215 L21.8578606,3.23098515 L18.2364444,6.87705422 C18.0244375,7.08906116 17.7368944,7.20816541 17.4370713,7.20816541 L11.6876694,7.20816541 L18.452937,0.455841537 L21.1314442,0.994254215 Z" id="路径备份-7" fill="#0D9CE7"></path>
                                    <path d="M12.0146208,3.25147026 L6.29466468,8.90389191 L0.00312467146,8.90389191 L5.39265815,3.57785851 C5.604267,3.36874286 5.88977791,3.25147026 6.18728028,3.25147026 L12.0146208,3.25147026 L12.0146208,3.25147026 Z" id="路径备份-8" fill="url(#linearGradient-7)"></path>
                                    <path d="M13.2904315,3.58256587 L16.5850482,6.87705422 C16.7869596,7.07896559 17.0573845,7.19661149 17.3416799,7.20735801 L17.3844214,7.20816541 L11.1643738,7.20659514 C10.8646572,7.20651948 10.5772374,7.08742704 10.3653016,6.87549956 L7.07056667,3.58089301 L7.07056667,3.58089301 C6.8686553,3.37898164 6.59823039,3.26133575 6.31393503,3.25058922 L6.27119353,3.24978182 L12.4888573,3.24978182 C12.7164017,3.24978182 12.936873,3.31838261 13.1226208,3.44413089 L13.1615015,3.47171703 C13.2069271,3.50517545 13.2500495,3.54218542 13.2904315,3.58256587 Z" id="路径备份-9" fill="#34B6FA"></path>
                                    <path d="M15.9438461,0 L21.4792023,0 C21.7913769,-6.11879084e-16 22.0444444,0.253067537 22.0444444,0.565242165 L22.0444444,6.10059833 C22.0444444,6.25668565 21.9179107,6.38321941 21.7618234,6.38321941 C21.6868676,6.38321941 21.6149818,6.35344335 21.5619801,6.30044162 L15.7440028,0.482464367 C15.6336324,0.372093969 15.6336324,0.193148197 15.7440028,0.0827777986 C15.7970046,0.0297760643 15.8688903,-2.63786604e-16 15.9438461,0 Z" id="矩形备份-33" fill="#34B6FA"></path>
                                </g>
                            </g>
                            <rect id="矩形" stroke="#FFFFFF" x="0.570588235" y="0.5" width="31" height="31" rx="7"></rect>
                        </g>
                    </g>
                </g>
            </g>
        </g>
    </g>
</svg>