<?xml version="1.0" encoding="UTF-8"?>
<svg width="18px" height="18px" viewBox="0 0 18 18" version="1.1" xmlns="http://www.w3.org/2000/svg" xmlns:xlink="http://www.w3.org/1999/xlink">
    <title>icon_31</title>
    <g id="icon_31" stroke="none" stroke-width="1" fill="none" fill-rule="evenodd" stroke-linejoin="round">
        <g id="编组" stroke="#94959B" stroke-width="1.4">
            <g id="01-图标/浅色版/基础样式#通用/布局">
                <circle id="椭圆形" fill="#94959B" stroke-linecap="round" cx="9" cy="9" r="3"></circle>
                <line x1="9" y1="4" x2="9" y2="1" id="路径"></line>
                <line x1="13.5961941" y1="5.90380592" x2="13.5961941" y2="2.90380592" id="路径" transform="translate(13.596194, 4.403806) rotate(45.000000) translate(-13.596194, -4.403806) "></line>
                <line x1="15.5" y1="10.5" x2="15.5" y2="7.5" id="路径" transform="translate(15.500000, 9.000000) rotate(90.000000) translate(-15.500000, -9.000000) "></line>
                <line x1="13.5961941" y1="15.0961941" x2="13.5961941" y2="12.0961941" id="路径" transform="translate(13.596194, 13.596194) rotate(135.000000) translate(-13.596194, -13.596194) "></line>
                <line x1="9" y1="17" x2="9" y2="14" id="路径" transform="translate(9.000000, 15.500000) rotate(180.000000) translate(-9.000000, -15.500000) "></line>
                <line x1="4.40380592" y1="15.0961941" x2="4.40380592" y2="12.0961941" id="路径" transform="translate(4.403806, 13.596194) rotate(225.000000) translate(-4.403806, -13.596194) "></line>
                <line x1="2.5" y1="10.5" x2="2.5" y2="7.5" id="路径" transform="translate(2.500000, 9.000000) rotate(270.000000) translate(-2.500000, -9.000000) "></line>
                <line x1="4.40380592" y1="5.90380592" x2="4.40380592" y2="2.90380592" id="路径" transform="translate(4.403806, 4.403806) rotate(315.000000) translate(-4.403806, -4.403806) "></line>
            </g>
        </g>
    </g>
</svg>