<?xml version="1.0" encoding="UTF-8"?>
<svg width="18px" height="18px" viewBox="0 0 18 18" version="1.1" xmlns="http://www.w3.org/2000/svg" xmlns:xlink="http://www.w3.org/1999/xlink">
    <title>icon_35</title>
    <g id="icon_35" stroke="none" stroke-width="1" fill="none" fill-rule="evenodd" stroke-linejoin="round">
        <g id="编组" stroke="#94959B" stroke-width="1.4">
            <g id="编组-8" transform="translate(3.000000, 1.000000)">
                <rect id="矩形备份-2" transform="translate(9.833333, 8.000000) scale(-1, 1) translate(-9.833333, -8.000000) " x="7.66666667" y="2.66666667" width="4.33333333" height="10.6666667"></rect>
                <rect id="矩形备份-3" fill="#94959B" transform="translate(2.166667, 10.000000) scale(-1, 1) translate(-2.166667, -10.000000) " x="-9.09494702e-13" y="8" width="4.33333333" height="4"></rect>
                <line x1="9.83333333" y1="2.49043659" x2="9.83333333" y2="0" id="路径-2备份-4" transform="translate(9.833333, 1.245218) scale(-1, 1) translate(-9.833333, -1.245218) "></line>
                <line x1="2.16666667" y1="7.83242298" x2="2.16666667" y2="3.33333333" id="路径-2备份-5" transform="translate(2.166667, 5.582878) scale(-1, 1) translate(-2.166667, -5.582878) "></line>
                <line x1="9.83333333" y1="16" x2="9.83333333" y2="13.4186846" id="路径-2备份-6" transform="translate(9.833333, 14.709342) scale(-1, 1) translate(-9.833333, -14.709342) "></line>
                <line x1="2.16666667" y1="14.6666667" x2="2.16666667" y2="12.1707025" id="路径-2备份-7" transform="translate(2.166667, 13.418685) scale(-1, 1) translate(-2.166667, -13.418685) "></line>
            </g>
        </g>
    </g>
</svg>