<?xml version="1.0" encoding="UTF-8"?>
<svg width="18px" height="18px" viewBox="0 0 18 18" version="1.1" xmlns="http://www.w3.org/2000/svg" xmlns:xlink="http://www.w3.org/1999/xlink">
    <g id="icon_39" stroke="none" stroke-width="1" fill="none" fill-rule="evenodd">
        <g id="01-图标/浅色版/基础样式#通用/布局" fill="#56585C">
            <path d="M8.20133137,1.61939722 L6.45705516,5.15892017 C6.3265342,5.42377612 6.07383873,5.60726597 5.78158978,5.6493961 L1.80171707,6.22312797 C1.31222177,6.2936928 0.972611527,6.74771125 1.04317636,7.23720654 C1.07138862,7.43290984 1.16358039,7.6137728 1.30537028,7.75158186 L4.18617896,10.5515104 C4.39903963,10.7583949 4.49554716,11.0573157 4.44384916,11.3496138 L3.76391268,15.1939427 C3.6777788,15.6809396 4.00274249,16.1455539 4.48973941,16.2316878 C4.68623985,16.2664423 4.88871898,16.2345662 5.06503681,16.1411194 L8.58007594,14.27818 C8.84233082,14.1391873 9.15641643,14.1391736 9.41868342,14.2781435 L12.9375689,16.1427286 C13.3745665,16.3742847 13.9165362,16.2077414 14.1480922,15.7707439 C14.2413298,15.5947838 14.2732551,15.3927653 14.2388204,15.196629 L13.5632242,11.3485136 C13.5120123,11.0568163 13.6083358,10.7586653 13.820532,10.5520672 L16.6984575,7.75006619 C17.0528038,7.40506808 17.0603821,6.83813736 16.715384,6.483791 C16.577806,6.34248511 16.3974273,6.25054973 16.202249,6.22225646 L12.2496033,5.64927636 C11.9592497,5.60718637 11.707931,5.42553357 11.5768866,5.16303769 L9.80574824,1.6152607 C9.58485078,1.17277979 9.04707636,0.993150911 8.60459545,1.21404836 C8.42948956,1.30146557 8.2878445,1.4438429 8.20133137,1.61939722 Z" id="路径"></path>
        </g>
    </g>
</svg>