<?xml version="1.0" encoding="UTF-8"?>
<svg width="18px" height="18px" viewBox="0 0 18 18" version="1.1" xmlns="http://www.w3.org/2000/svg" xmlns:xlink="http://www.w3.org/1999/xlink">
    <g id="icon_34" stroke="none" stroke-width="1" fill="none" fill-rule="evenodd">
        <g id="01-图标/浅色版/基础样式#通用/布局">
            <rect id="矩形" stroke="#818588" stroke-width="1.4" stroke-linecap="round" x="2" y="2" width="14" height="14"></rect>
            <path d="M8.10081703,5.90853284 C8.01317299,5.68785314 7.91196234,5.41657496 7.79718507,5.0946983 L6.26410757,5.0946983 C6.21439925,5.25456135 6.13047391,5.52583953 6.01233155,5.90853284 L4.03807697,11.9228566 L3.71640373,12.8943486 L5.21965134,12.8943486 L5.70556056,11.4423982 L8.4047143,11.4423982 L8.85234802,12.8943486 L10.3023762,12.8943486 L9.99604396,11.9187641 L8.10081703,5.90853284 Z M6.12656244,9.93145079 L7.03753582,6.73030489 L7.94707232,9.93145079 L6.12656244,9.93145079 Z M13.9984356,8.38110876 L12.9782604,8.38110876 C12.992459,8.56753637 12.992459,8.71817558 12.9782604,8.8330264 C12.7450091,8.47834391 12.4049507,8.29008936 11.9580852,8.26826274 C10.8502611,8.40085942 10.2573142,9.18689039 10.1792444,10.6263556 C10.237677,12.0876475 10.8306239,12.851579 11.9580852,12.9181502 C12.3454605,12.9281634 12.7176157,12.7463255 12.9782604,12.4196849 C12.9782604,12.6242001 12.9782604,12.7791691 12.9782604,12.8845918 L13.9984356,12.8845918 L13.9984356,8.38110876 Z M12.1039271,11.8549212 C11.5770761,11.8336403 11.2952108,11.4243912 11.2583312,10.6271741 C11.2971266,9.85232931 11.5789919,9.44308028 12.1039271,9.39942705 C12.6087462,9.44471728 12.8903721,9.85396631 12.9488047,10.6271741 C12.890851,11.402019 12.6092252,11.811268 12.1039271,11.8549212 Z" id="形状" fill="#818588" fill-rule="nonzero"></path>
        </g>
    </g>
</svg>