<?xml version="1.0" encoding="UTF-8"?>
<svg width="8px" height="18px" viewBox="0 0 8 18" version="1.1" xmlns="http://www.w3.org/2000/svg" xmlns:xlink="http://www.w3.org/1999/xlink">
    <title>icon_drag2</title>
    <g id="icon_drag2" stroke="none" stroke-width="1" fill="none" fill-rule="evenodd">
        <g id="01-图标/浅色版/基础样式#通用/拖拽" fill="#B0B1B3">
            <path d="M2.75,4.56521739 C3.16421356,4.56521739 3.5,4.21483154 3.5,3.7826087 C3.5,3.35038585 3.16421356,3 2.75,3 C2.33578644,3 2,3.35038585 2,3.7826087 C2,4.21483154 2.33578644,4.56521739 2.75,4.56521739 Z M2.75,7.17391304 C3.16421356,7.17391304 3.5,6.8235272 3.5,6.39130435 C3.5,5.9590815 3.16421356,5.60869565 2.75,5.60869565 C2.33578644,5.60869565 2,5.9590815 2,6.39130435 C2,6.8235272 2.33578644,7.17391304 2.75,7.17391304 Z M2.75,9.7826087 C3.16421356,9.7826087 3.5,9.43222285 3.5,9 C3.5,8.56777715 3.16421356,8.2173913 2.75,8.2173913 C2.33578644,8.2173913 2,8.56777715 2,9 C2,9.43222285 2.33578644,9.7826087 2.75,9.7826087 Z M2.75,12.3913043 C3.16421356,12.3913043 3.5,12.0409185 3.5,11.6086957 C3.5,11.1764728 3.16421356,10.826087 2.75,10.826087 C2.33578644,10.826087 2,11.1764728 2,11.6086957 C2,12.0409185 2.33578644,12.3913043 2.75,12.3913043 Z M2.75,15 C3.16421356,15 3.5,14.6496142 3.5,14.2173913 C3.5,13.7851685 3.16421356,13.4347826 2.75,13.4347826 C2.33578644,13.4347826 2,13.7851685 2,14.2173913 C2,14.6496142 2.33578644,15 2.75,15 Z M5.25,4.56521739 C5.66421356,4.56521739 6,4.21483154 6,3.7826087 C6,3.35038585 5.66421356,3 5.25,3 C4.83578644,3 4.5,3.35038585 4.5,3.7826087 C4.5,4.21483154 4.83578644,4.56521739 5.25,4.56521739 Z M5.25,7.17391304 C5.66421356,7.17391304 6,6.8235272 6,6.39130435 C6,5.9590815 5.66421356,5.60869565 5.25,5.60869565 C4.83578644,5.60869565 4.5,5.9590815 4.5,6.39130435 C4.5,6.8235272 4.83578644,7.17391304 5.25,7.17391304 Z M5.25,9.7826087 C5.66421356,9.7826087 6,9.43222285 6,9 C6,8.56777715 5.66421356,8.2173913 5.25,8.2173913 C4.83578644,8.2173913 4.5,8.56777715 4.5,9 C4.5,9.43222285 4.83578644,9.7826087 5.25,9.7826087 Z M5.25,12.3913043 C5.66421356,12.3913043 6,12.0409185 6,11.6086957 C6,11.1764728 5.66421356,10.826087 5.25,10.826087 C4.83578644,10.826087 4.5,11.1764728 4.5,11.6086957 C4.5,12.0409185 4.83578644,12.3913043 5.25,12.3913043 Z M5.25,15 C5.66421356,15 6,14.6496142 6,14.2173913 C6,13.7851685 5.66421356,13.4347826 5.25,13.4347826 C4.83578644,13.4347826 4.5,13.7851685 4.5,14.2173913 C4.5,14.6496142 4.83578644,15 5.25,15 Z" id="形状结合"></path>
        </g>
    </g>
</svg>