<?xml version="1.0" encoding="UTF-8"?>
<svg width="216px" height="36px" viewBox="0 0 216 36" version="1.1" xmlns="http://www.w3.org/2000/svg" xmlns:xlink="http://www.w3.org/1999/xlink">
    <defs>
        <rect id="path-1" x="0" y="0" width="36.0209424" height="36" rx="8.296875"></rect>
        <path d="M6.99894095,6.51794872 L6.99894095,7.63076923 C6.99894095,10.6159391 9.42030704,13.0358974 12.4072135,13.0358974 C15.3642509,13.0358974 17.7670022,10.6640963 17.8147615,7.72015291 L17.815486,7.63076923 L17.815486,0 L24.814427,0 L24.814427,7.63076923 C24.814427,14.4791001 19.2595283,20.0307692 12.4072135,20.0307692 C5.62342184,20.0307692 0.111227715,14.5895783 0.00166221213,7.8358259 L0,7.63076923 L0,6.51794872 L6.99894095,6.51794872 Z" id="path-3"></path>
        <linearGradient x1="56.1584385%" y1="45.3394784%" x2="23.1498455%" y2="84.277195%" id="linearGradient-5">
            <stop stop-color="#F4B200" offset="0.0191215035%"></stop>
            <stop stop-color="#E28600" offset="100%"></stop>
        </linearGradient>
        <linearGradient x1="74.7998873%" y1="4.89852467%" x2="32.609026%" y2="89.3232527%" id="linearGradient-6">
            <stop stop-color="#FED702" stop-opacity="0" offset="0%"></stop>
            <stop stop-color="#FFEE93" offset="100%"></stop>
        </linearGradient>
        <linearGradient x1="66.3074045%" y1="44.8647059%" x2="36.4642611%" y2="58.2281576%" id="linearGradient-7">
            <stop stop-color="#0D9CE7" offset="0%"></stop>
            <stop stop-color="#34B6FA" offset="100%"></stop>
        </linearGradient>
    </defs>
    <g id="log_logo_dark" stroke="none" stroke-width="1" fill="none" fill-rule="evenodd">
        <g id="编组">
            <path d="M202.228486,28.5 L198.472159,28.5 L198.472159,7.5 L208.80206,7.5 C212.225088,7.5 215,10.2702381 215,13.6875 C215,16.8870713 212.567368,19.5194282 209.447793,19.8418232 L215,28.5 L210.492407,28.5 L204.963178,19.875 L202.228178,19.875 L202.228486,28.5 Z M202.228178,16.125 L208.80206,16.125 C210.150525,16.125 211.243672,15.0336941 211.243672,13.6875 C211.243672,12.370571 210.197537,11.2975685 208.889632,11.2515386 L208.80206,11.25 L202.228178,11.25 L202.228178,16.125 Z M159.218536,7.5 L165.22866,7.5 C171.037435,7.5 175.746377,12.2010101 175.746377,18 C175.746377,23.741 171.131143,28.40587 165.40259,28.4985933 L165.22866,28.5 L159.218536,28.5 L159.218536,7.5 Z M162.974178,24.75 L165.22866,24.75 C168.962872,24.75 171.990049,21.7279221 171.990049,18 C171.990049,14.3134993 169.029769,11.3172444 165.352869,11.2511161 L165.22866,11.25 L162.974178,11.25 L162.974178,24.75 Z M195.27928,7.5 L195.27928,11.25 L182.507178,11.25 L182.507178,16.125 L193.776749,16.125 L193.776749,19.875 L182.507178,19.875 L182.507178,24.75 L195.27928,24.75 L195.27928,28.5 L178.751439,28.5 L178.751439,7.5 L195.27928,7.5 Z M150.578982,7.5 L156.964739,28.5 L153.208412,28.5 L151.726178,23.625 L145.675178,23.625 L144.193226,28.5 L140.436898,28.5 L146.822655,7.5 L150.578982,7.5 Z M148.700178,13.676 L146.815178,19.875 L150.585178,19.875 L148.700178,13.676 Z M55.5438952,7.5 C49.7351204,7.5 45.026178,12.2010101 45.026178,18 C45.026178,23.741 49.6414124,28.40587 55.3699655,28.4985933 L55.5438952,28.5 L61.5540193,28.5 L61.5540193,24.75 L55.5438952,24.75 C51.8096828,24.75 48.7825056,21.7279221 48.7825056,18 C48.7825056,14.3134993 51.7427859,11.3172444 55.4196865,11.2511161 L55.5438952,11.25 L61.5540193,11.25 L61.5540193,7.5 L55.5438952,7.5 Z M91.6046397,7.5 C96.1686771,7.5 99.8685604,11.1936508 99.8685604,15.75 L99.8685604,20.25 C99.8685604,24.8063492 96.1686771,28.5 91.6046397,28.5 C87.0406024,28.5 83.3407191,24.8063492 83.3407191,20.25 L83.3407191,15.75 C83.3407191,11.1936508 87.0406024,7.5 91.6046397,7.5 Z M91.6046397,11.25 C89.1400596,11.25 87.1374562,13.2246257 87.0976505,15.6755843 L87.0970467,15.75 L87.0970467,20.25 C87.0970467,22.7352814 89.1151648,24.75 91.6046397,24.75 C94.0692199,24.75 96.0718233,22.7753743 96.1116289,20.3244157 L96.1122328,20.25 L96.1122328,15.75 C96.1122328,13.2647186 94.0941146,11.25 91.6046397,11.25 Z M125.411588,28.5 L121.65526,28.5 L121.65526,7.5 L131.985161,7.5 C135.408189,7.5 138.183101,10.2702381 138.183101,13.6875 C138.183101,16.8870713 135.75047,19.5194282 132.630894,19.8418232 L138.183101,28.5 L133.675508,28.5 L128.146178,19.875 L125.411178,19.875 L125.411588,28.5 Z M125.411178,16.125 L131.985161,16.125 C133.333627,16.125 134.426774,15.0336941 134.426774,13.6875 C134.426774,12.370571 133.380638,11.2975685 132.072734,11.2515386 L131.985161,11.25 L125.411178,11.25 L125.411178,16.125 Z M118.650198,7.5 L118.650198,11.25 L112.264178,11.25 L112.264441,28.5 L108.508114,28.5 L108.507178,11.25 L102.122357,11.25 L102.122357,7.5 L118.650198,7.5 Z M81.0869226,7.5 L81.0869226,11.25 L74.700178,11.25 L74.7011657,28.5 L70.9448382,28.5 L70.944178,11.25 L64.5590813,11.25 L64.5590813,7.5 L81.0869226,7.5 Z" id="形状结合备份-2" fill="#FFFFFF"></path>
            <g id="logo-2">
                <g id="背板备份-4">
                    <mask id="mask-2" fill="white">
                        <use xlink:href="#path-1"></use>
                    </mask>
                    <use id="蒙版" fill="#2D2E36" xlink:href="#path-1"></use>
                    <g id="编组-11备份" opacity="0.04" mask="url(#mask-2)" stroke="#FFFFFF" stroke-width="0.5">
                        <g transform="translate(18.010471, 18.100000) rotate(-90.000000) translate(-18.010471, -18.100000) translate(-6.003490, -4.500000)">
                            <path d="M48.0279232,9.1 L0,9.1 M0,0.1 L48.0279232,0.1" id="形状"></path>
                            <path d="M48.0279232,27.1 L0,27.1 M0,18.1 L48.0279232,18.1" id="形状备份-18"></path>
                            <path d="M48.0279232,45.1 L0,45.1 M0,36.1 L48.0279232,36.1" id="形状备份-19"></path>
                        </g>
                    </g>
                    <g id="编组-11" opacity="0.04" mask="url(#mask-2)" stroke="#FFFFFF" stroke-width="0.5">
                        <g transform="translate(-6.003490, -4.500000)">
                            <path d="M48.0279232,9.1 L0,9.1 M0,0.1 L48.0279232,0.1" id="形状"></path>
                            <path d="M48.0279232,27.1 L0,27.1 M0,18.1 L48.0279232,18.1" id="形状备份-18"></path>
                            <path d="M48.0279232,45.1 L0,45.1 M0,36.1 L48.0279232,36.1" id="形状备份-19"></path>
                        </g>
                    </g>
                </g>
                <g id="编组-2备份-11" transform="translate(5.603258, 5.600000)">
                    <g id="椭圆形备份-39" transform="translate(0.000000, 4.769231)">
                        <mask id="mask-4" fill="white">
                            <use xlink:href="#path-3"></use>
                        </mask>
                        <use id="蒙版" fill="#F4B200" xlink:href="#path-3"></use>
                        <path d="M24.564427,-4.20128205 L24.564427,7.63076923 C24.564427,10.0200922 23.595388,12.1832116 22.0286842,13.7490046 C20.4619277,15.3148502 18.2974703,16.2833333 15.906684,16.2833333 C13.5158976,16.2833333 11.3514402,15.3148502 9.78468376,13.7490046 C8.21797991,12.1832116 7.24894095,10.0200922 7.24894095,7.63076923 C7.24894095,4.98602234 8.21054342,1.68014219 9.87270057,-0.773016437 C11.2205053,-2.76222588 13.0325104,-4.20128205 15.1852309,-4.20128205 L15.1852309,-4.20128205 L24.564427,-4.20128205 Z" id="椭圆形" stroke="url(#linearGradient-6)" stroke-width="0.5" fill="url(#linearGradient-5)" mask="url(#mask-4)"></path>
                        <path d="M24.1750123,-3.4974359 C24.5262087,-3.4974359 24.8109097,-3.21273492 24.8109097,-2.86153846 L24.8109097,3.36605277 C24.8109097,3.541651 24.6685592,3.68400149 24.492961,3.68400149 C24.4086678,3.68400149 24.3278243,3.6505288 24.2682027,3.59094183 L22.713,2.0355641 L20.5244175,4.2392501 C20.285771,4.4777579 19.9620968,4.61175019 19.6245996,4.61175019 L13.1527598,4.61175019 L13.154,4.6095641 L12.5631869,4.60998351 C12.2261339,4.60989847 11.9028985,4.47602097 11.6644921,4.23776244 L10.534,3.1085641 L8.46140149,5.15721863 L7.08210001,6.5194425 L0,6.5194425 L1.57495152,4.96395212 L6.06701549,0.527395042 C6.30505272,0.292299153 6.62614021,0.160468142 6.96070232,0.160468142 L7.11387114,0.15989774 C7.11051312,0.159744236 7.10715331,0.159603973 7.10379177,0.159476979 L14.0546206,0.158568649 C14.3107568,0.158568649 14.5589314,0.235744533 14.7680192,0.377211354 L14.8117854,0.408245761 C14.8629189,0.445886483 14.9114598,0.487522695 14.956916,0.532950711 L16.098,1.6735641 L19.227,-1.4474359 L17.718855,-2.95459812 C17.5946522,-3.07872871 17.5945936,-3.28004269 17.7187242,-3.40424549 C17.7783565,-3.46391244 17.859256,-3.4974359 17.9436133,-3.4974359 L24.1750123,-3.4974359 Z" id="形状结合" fill="#E89602" mask="url(#mask-4)"></path>
                    </g>
                    <path d="M23.7867042,1.11853599 L24.6043981,3.63485829 L20.5279348,7.736686 C20.2892883,7.9751938 19.9656141,8.10918609 19.6281169,8.10918609 L13.1562771,8.10918609 L20.7716306,0.512821729 L23.7867042,1.11853599 Z" id="路径备份-7" fill="#0D9CE7"></path>
                    <path d="M13.5243114,3.65790404 L7.08561731,10.0168784 L0.00351730033,10.0168784 L6.07053279,4.02483094 C6.30857002,3.78973505 6.62965751,3.65790404 6.96421962,3.65790404 L13.5243114,3.65790404 L13.5243114,3.65790404 Z" id="路径备份-8" fill="url(#linearGradient-7)"></path>
                    <path d="M14.9604333,4.03038661 L18.6690334,7.736686 C18.8963158,7.96383629 19.2007208,8.09618792 19.5207391,8.10827776 L19.5688513,8.10918609 L12.5667042,8.10741941 C12.2296512,8.10733437 11.9064158,7.97345687 11.6680094,7.73519833 L7.95901484,4.02850464 L7.95901484,4.02850464 C7.7317324,3.80135435 7.4273274,3.66900271 7.10730907,3.65691288 L7.05919691,3.65600455 L14.0581379,3.65600455 C14.3142741,3.65600455 14.5624487,3.73318043 14.7715365,3.87464725 L14.8153027,3.90568166 C14.8664362,3.94332238 14.9149771,3.98495859 14.9604333,4.03038661 Z" id="路径备份-9" fill="#34B6FA"></path>
                    <path d="M17.9471306,0 L24.1785296,0 C24.529726,-6.45137424e-17 24.814427,0.28470098 24.814427,0.635897436 L24.814427,6.86348867 C24.814427,7.0390869 24.6720765,7.18143739 24.4964783,7.18143739 C24.4121851,7.18143739 24.3313416,7.14796469 24.27172,7.08837773 L17.7223723,0.542837778 C17.5981695,0.418707191 17.5981109,0.217393206 17.7222415,0.0931904076 C17.7818738,0.0335234599 17.8627733,1.82029635e-16 17.9471306,0 Z" id="矩形备份-33" fill="#34B6FA"></path>
                </g>
            </g>
        </g>
    </g>
</svg>