<?xml version="1.0" encoding="UTF-8"?>
<svg width="64px" height="64px" viewBox="0 0 64 64" version="1.1" xmlns="http://www.w3.org/2000/svg" xmlns:xlink="http://www.w3.org/1999/xlink">
    <defs>
        <linearGradient x1="50%" y1="0%" x2="50%" y2="100%" id="linearGradient-1">
            <stop stop-color="#1BCD82" offset="0.0928758741%"></stop>
            <stop stop-color="#009355" offset="100%"></stop>
        </linearGradient>
        <linearGradient x1="36.779278%" y1="56.7012778%" x2="57.2231711%" y2="71.0435405%" id="linearGradient-2">
            <stop stop-color="#000000" stop-opacity="0.158872378" offset="0%"></stop>
            <stop stop-color="#000000" stop-opacity="0" offset="100%"></stop>
        </linearGradient>
    </defs>
    <g id="logo_recognise" stroke="none" stroke-width="1" fill="none" fill-rule="evenodd">
        <g id="编组-2">
            <circle id="椭圆形" fill="url(#linearGradient-1)" cx="32" cy="32" r="32"></circle>
            <polygon id="路径-3" fill="url(#linearGradient-2)" points="29.7580583 44.9671801 42.4507755 57.6598974 50.4857371 33.9817546 34.7237091 18.2197266 30.1489105 37.7509003 34.1519831 41.7520793"></polygon>
            <g id="编组" transform="translate(14.000000, 14.000000)" fill="#FFFFFF" fill-rule="nonzero">
                <g id="编组" transform="translate(15.021152, 4.011400)">
                    <circle id="椭圆形" cx="3" cy="25" r="3"></circle>
                    <path d="M0.839166359,0 L5.16141076,0 C5.60323857,-4.73584374e-16 5.96141077,0.358172205 5.96141077,0.800000012 C5.96141077,0.812558417 5.96111506,0.825115081 5.96052388,0.837659564 L5.09339289,19.2376595 C5.07328335,19.6643721 4.7214659,20 4.29427977,20 L1.71897025,20 C1.29199675,20 0.940275818,19.6646949 0.919883196,19.2382087 L0.0400793084,0.838208702 C0.0189772317,0.39688511 0.359634077,0.0220150377 0.80095767,0.000912960914 C0.813684812,0.000304407152 0.826424676,4.46429819e-16 0.839166359,0 Z" id="矩形"></path>
                </g>
            </g>
        </g>
    </g>
</svg>