<?xml version="1.0" encoding="UTF-8"?>
<svg width="14px" height="14px" viewBox="0 0 14 14" version="1.1" xmlns="http://www.w3.org/2000/svg" xmlns:xlink="http://www.w3.org/1999/xlink">
    <g id="login_moon_dark" stroke="none" stroke-width="1" fill="none" fill-rule="evenodd">
        <g id="01-图标/浅色版/基础样式#通用/主题备份" fill="#CECDD1">
            <path d="M7.98153538,1.64379813 C10.5199311,2.10595069 12.4444444,4.32822826 12.4444444,7 C12.4444444,10.0068836 10.0068836,12.4444444 7,12.4444444 C4.32822826,12.4444444 2.10595069,10.5199311 1.64379813,7.98153538 C2.31062134,8.34743331 3.07545033,8.55555556 3.88888889,8.55555556 C6.46621772,8.55555556 8.55555556,6.46621772 8.55555556,3.88888889 C8.55555556,3.10137175 8.36048621,2.35941549 8.01603065,1.70870326 Z" id="形状结合"></path>
            <path d="M5.44385178,3.23404255 C5.11218267,3.30023641 4.78499557,3.37115839 4.4667725,3.49408983 C4.30990197,3.55555556 4.21129764,3.65957447 4.15303145,3.82033097 C4.05442711,4.10401891 3.9916789,4.39243499 3.93341271,4.6855792 C3.91996666,4.74704492 3.91100263,4.80851064 3.89755659,4.88416076 C3.8706645,4.74704492 3.84825442,4.61465721 3.81688032,4.49172577 C3.76757815,4.25531915 3.70931196,4.01891253 3.62415367,3.79196217 C3.57036949,3.65484634 3.4852112,3.56028369 3.35075075,3.5035461 C3.09975791,3.39952719 2.83531902,3.33333333 2.57088013,3.27186761 C2.49020386,3.25295508 2.4140096,3.23877069 2.33333333,3.21513002 C2.41849162,3.19621749 2.49916789,3.1820331 2.58432618,3.16312057 C2.83531902,3.10638298 3.08182985,3.04018913 3.31937665,2.94562648 C3.47624717,2.88416076 3.57933352,2.78014184 3.63759971,2.61465721 C3.73620405,2.33096927 3.80343427,2.03782506 3.86170047,1.74468085 C3.87514651,1.68794326 3.88411054,1.62647754 3.89755659,1.55555556 C3.94685875,1.84397163 4.00512495,2.11820331 4.0813192,2.38770686 C4.11269331,2.49172577 4.14406742,2.59574468 4.18888757,2.69503546 C4.2292257,2.79432624 4.30541996,2.87470449 4.40402429,2.92198582 C4.60571497,3.01654846 4.81188766,3.07328605 5.02254237,3.12529551 C5.15700282,3.15839243 5.29146327,3.18676123 5.42592372,3.21513002 C5.42592372,3.22458629 5.4483338,3.21040189 5.44385178,3.23404255 L5.44385178,3.23404255 Z M4.16647749,5.42789598 C4.01408898,5.45626478 3.86170047,5.49408983 3.70931196,5.55082742 C3.62863568,5.58392435 3.5748515,5.63593381 3.5434774,5.72576832 C3.48969322,5.88652482 3.4538371,6.05200946 3.41798098,6.22222222 C3.40005292,6.14184397 3.38660687,6.06619385 3.36867881,5.9858156 C3.34626874,5.88652482 3.31937665,5.78723404 3.28352052,5.69267139 C3.26111045,5.63120567 3.2162903,5.58392435 3.1580241,5.56028369 C3.00563559,5.49408983 2.84876506,5.46099291 2.69189454,5.42789598 C2.68293051,5.42789598 2.67396648,5.42789598 2.66948446,5.41371158 C2.75464275,5.39479905 2.84428305,5.37115839 2.92944134,5.35224586 C3.01459962,5.3286052 3.09975791,5.30496454 3.18043418,5.26713948 C3.22525433,5.24822695 3.26111045,5.21040189 3.27903851,5.16312057 C3.34178672,5.01654846 3.37316083,4.86524823 3.40453493,4.70921986 C3.40901695,4.68085106 3.41798098,4.65248227 3.43142702,4.62411348 C3.44487307,4.69976359 3.46280113,4.77541371 3.48072919,4.85106383 C3.49865725,4.94089835 3.52554934,5.02600473 3.55244143,5.11111111 C3.58381553,5.20094563 3.63759971,5.25768322 3.722758,5.29078014 C3.86618248,5.3427896 4.01408898,5.38061466 4.16199548,5.40898345 C4.16199548,5.41371158 4.17544152,5.41371158 4.16647749,5.42789598 L4.16647749,5.42789598 Z" id="形状"></path>
        </g>
    </g>
</svg>