<?xml version="1.0" encoding="UTF-8"?>
<svg width="14px" height="14px" viewBox="0 0 14 14" version="1.1" xmlns="http://www.w3.org/2000/svg" xmlns:xlink="http://www.w3.org/1999/xlink">
    <title>login_sun_dark</title>
    <g id="login_sun_dark" stroke="none" stroke-width="1" fill="none" fill-rule="evenodd" stroke-linejoin="round">
        <g id="编组" stroke="#000000" stroke-width="1.08888889">
            <g id="01-图标/浅色版/基础样式#通用/主题备份-2">
                <circle id="椭圆形" fill="#000000" stroke-linecap="round" cx="7" cy="7" r="2.33333333"></circle>
                <line x1="7" y1="3.11111111" x2="7" y2="0.777777778" id="路径"></line>
                <line x1="10.5748176" y1="4.59184905" x2="10.5748176" y2="2.25851572" id="路径" transform="translate(10.574818, 3.425182) rotate(45.000000) translate(-10.574818, -3.425182) "></line>
                <line x1="12.0555556" y1="8.16666667" x2="12.0555556" y2="5.83333333" id="路径" transform="translate(12.055556, 7.000000) rotate(90.000000) translate(-12.055556, -7.000000) "></line>
                <line x1="10.5748176" y1="11.7414843" x2="10.5748176" y2="9.40815095" id="路径" transform="translate(10.574818, 10.574818) rotate(135.000000) translate(-10.574818, -10.574818) "></line>
                <line x1="7" y1="13.2222222" x2="7" y2="10.8888889" id="路径" transform="translate(7.000000, 12.055556) rotate(180.000000) translate(-7.000000, -12.055556) "></line>
                <line x1="3.42518238" y1="11.7414843" x2="3.42518238" y2="9.40815095" id="路径" transform="translate(3.425182, 10.574818) rotate(225.000000) translate(-3.425182, -10.574818) "></line>
                <line x1="1.94444444" y1="8.16666667" x2="1.94444444" y2="5.83333333" id="路径" transform="translate(1.944444, 7.000000) rotate(270.000000) translate(-1.944444, -7.000000) "></line>
                <line x1="3.42518238" y1="4.59184905" x2="3.42518238" y2="2.25851572" id="路径" transform="translate(3.425182, 3.425182) rotate(315.000000) translate(-3.425182, -3.425182) "></line>
            </g>
        </g>
    </g>
</svg>